# xmcd
#
# Track frame offsets:
#	208
#	14848
#	46088
#	76400
#	90558
#	102100
#	116383
#	129350
#	149955
#
# Disc length: 2713 seconds
#
# Revision: 0
# Processed by: cddbd v1.4PL0 Copyright (c) Steve Scherf et al.
# Submitted via: EasyCDDAExtractor 4.5.0.2
#
DISCID=730a9709
DTITLE=The Yardbirds - Live at the Anderson Theatre
DYEAR=1968
DGENRE=Blues
TTITLE0=The Train Kept A-Rollin
TTITLE1=You're A Better Man Than I
TTITLE2=I'm Confused
TTITLE3=My Baby
TTITLE4=Over Under Sideways Down
TTITLE5=Drinking Muddy Water
TTITLE6=Shapes Of Things
TTITLE7=White Summer
TTITLE8=I'm A Man
EXTD=
EXTT0=
EXTT1=
EXTT2=
EXTT3=
EXTT4=
EXTT5=
EXTT6=
EXTT7=
EXTT8=
PLAYORDER=
